<svg width="156" height="51" viewBox="0 0 156 51" fill="none" xmlns="http://www.w3.org/2000/svg">
<path d="M0 15.6364L20.3636 15.6364L20.3636 36L-1.78025e-06 36L0 15.6364Z" fill="#A0D6FA"/>
<path d="M7.27271 4H32V28.7273H19.6363C12.8081 28.7273 7.27271 23.1919 7.27271 16.3636V4Z" fill="#2F8DEB"/>
<path d="M7.27271 15.6364H20.3636V28.7273H19.5804C12.783 28.7273 7.27271 23.2169 7.27271 16.4196V15.6364Z" fill="white"/>
<path d="M44.153 28V14.776H46.299L46.821 16.255H46.966C47.256 15.849 47.6813 15.4527 48.242 15.066C48.822 14.66 49.4793 14.457 50.214 14.457C50.678 14.457 51.055 14.5053 51.345 14.602V17.444C51.0163 17.3667 50.62 17.328 50.156 17.328C49.2087 17.328 48.445 17.6373 47.865 18.256C47.3043 18.8553 47.024 19.677 47.024 20.721V28H44.153ZM64.8264 21.098C64.8264 21.7167 64.778 22.1903 64.6814 22.519H54.9084C55.1017 23.5243 55.5174 24.317 56.1554 24.897C56.8127 25.4577 57.615 25.738 58.5624 25.738C59.239 25.738 59.8094 25.6027 60.2734 25.332C60.7567 25.0613 61.1337 24.7327 61.4044 24.346H64.3914C63.966 25.4093 63.2314 26.3373 62.1874 27.13C61.1434 27.9227 59.9447 28.319 58.5914 28.319C57.3927 28.319 56.2907 28.0193 55.2854 27.42C54.28 26.8013 53.4777 25.97 52.8784 24.926C52.2984 23.8627 52.0084 22.6833 52.0084 21.388C52.0084 20.1313 52.308 18.9713 52.9074 17.908C53.5067 16.8447 54.2994 16.0037 55.2854 15.385C56.2907 14.7663 57.3734 14.457 58.5334 14.457C59.6934 14.457 60.7567 14.7567 61.7234 15.356C62.69 15.936 63.444 16.7287 63.9854 17.734C64.546 18.7393 64.8264 19.8607 64.8264 21.098ZM58.5334 17.038C57.644 17.038 56.861 17.3377 56.1844 17.937C55.5077 18.5363 55.0727 19.3387 54.8794 20.344H62.0714C61.8974 19.358 61.4817 18.5653 60.8244 17.966C60.1864 17.3473 59.4227 17.038 58.5334 17.038ZM71.7837 28.319C70.7783 28.319 69.8793 28.1257 69.0867 27.739C68.3133 27.333 67.7043 26.8013 67.2597 26.144C66.8343 25.4867 66.5927 24.7617 66.5347 23.969H69.3767C69.4153 24.5683 69.6473 25.0517 70.0727 25.419C70.5173 25.767 71.0877 25.941 71.7837 25.941C72.4603 25.941 72.9823 25.796 73.3497 25.506C73.7363 25.1967 73.9297 24.8197 73.9297 24.375C73.9297 23.8723 73.6977 23.4857 73.2337 23.215C72.7697 22.925 72.064 22.635 71.1167 22.345C70.208 22.055 69.4733 21.7747 68.9127 21.504C68.352 21.2333 67.8687 20.8467 67.4627 20.344C67.0567 19.8413 66.8537 19.184 66.8537 18.372C66.8537 17.2507 67.279 16.3227 68.1297 15.588C68.9997 14.834 70.179 14.457 71.6677 14.457C73.079 14.457 74.2293 14.863 75.1187 15.675C76.0273 16.4677 76.53 17.473 76.6267 18.691H73.7847C73.7073 18.111 73.4947 17.6663 73.1467 17.357C72.7987 17.0283 72.3057 16.864 71.6677 16.864C71.049 16.864 70.5657 16.9993 70.2177 17.27C69.889 17.5213 69.7247 17.85 69.7247 18.256C69.7247 18.72 69.9373 19.0873 70.3627 19.358C70.8073 19.6093 71.4937 19.88 72.4217 20.17C73.311 20.4407 74.0457 20.721 74.6257 21.011C75.225 21.2817 75.7277 21.678 76.1337 22.2C76.559 22.722 76.7717 23.3987 76.7717 24.23C76.7717 25.4287 76.327 26.4147 75.4377 27.188C74.5677 27.942 73.3497 28.319 71.7837 28.319ZM84.5461 28.319C83.5215 28.319 82.6031 28.0773 81.7911 27.594C80.9985 27.1107 80.3701 26.434 79.9061 25.564C79.4615 24.694 79.2391 23.6887 79.2391 22.548V14.776H82.1101V22.345C82.1101 23.3117 82.3905 24.1043 82.9511 24.723C83.5311 25.3417 84.2561 25.651 85.1261 25.651C86.0348 25.651 86.7695 25.3417 87.3301 24.723C87.9101 24.1043 88.2001 23.3117 88.2001 22.345V14.776H91.0421V28H88.8961L88.3741 26.521H88.2581C87.9295 26.9463 87.4365 27.3523 86.7791 27.739C86.1411 28.1257 85.3968 28.319 84.5461 28.319ZM107.995 14.457C109.368 14.457 110.479 14.95 111.33 15.936C112.181 16.922 112.606 18.285 112.606 20.025V28H109.706V20.112C109.706 19.184 109.484 18.459 109.039 17.937C108.614 17.415 108.043 17.154 107.328 17.154C106.651 17.154 106.081 17.4247 105.617 17.966C105.153 18.488 104.921 19.2033 104.921 20.112V28H102.05V20.112C102.05 19.184 101.828 18.459 101.383 17.937C100.938 17.415 100.368 17.154 99.6719 17.154C98.9759 17.154 98.3959 17.4247 97.9319 17.966C97.4679 18.488 97.2359 19.2033 97.2359 20.112V28H94.3649V14.776H96.5109L97.0329 16.255H97.1779C97.4486 15.8297 97.8546 15.4237 98.3959 15.037C98.9566 14.6503 99.6236 14.457 100.397 14.457C101.325 14.457 102.089 14.6793 102.688 15.124C103.307 15.5493 103.771 16.0423 104.08 16.603C104.467 16.0423 104.989 15.5493 105.646 15.124C106.323 14.6793 107.106 14.457 107.995 14.457ZM127.839 21.098C127.839 21.7167 127.791 22.1903 127.694 22.519H117.921C118.114 23.5243 118.53 24.317 119.168 24.897C119.825 25.4577 120.628 25.738 121.575 25.738C122.252 25.738 122.822 25.6027 123.286 25.332C123.769 25.0613 124.146 24.7327 124.417 24.346H127.404C126.979 25.4093 126.244 26.3373 125.2 27.13C124.156 27.9227 122.957 28.319 121.604 28.319C120.405 28.319 119.303 28.0193 118.298 27.42C117.293 26.8013 116.49 25.97 115.891 24.926C115.311 23.8627 115.021 22.6833 115.021 21.388C115.021 20.1313 115.321 18.9713 115.92 17.908C116.519 16.8447 117.312 16.0037 118.298 15.385C119.303 14.7663 120.386 14.457 121.546 14.457C122.706 14.457 123.769 14.7567 124.736 15.356C125.703 15.936 126.457 16.7287 126.998 17.734C127.559 18.7393 127.839 19.8607 127.839 21.098ZM121.546 17.038C120.657 17.038 119.874 17.3377 119.197 17.937C118.52 18.5363 118.085 19.3387 117.892 20.344H125.084C124.91 19.358 124.494 18.5653 123.837 17.966C123.199 17.3473 122.435 17.038 121.546 17.038ZM131.519 28.319C130.997 28.319 130.562 28.145 130.214 27.797C129.866 27.4297 129.692 26.9947 129.692 26.492C129.692 25.9893 129.866 25.564 130.214 25.216C130.562 24.8487 130.997 24.665 131.519 24.665C132.022 24.665 132.447 24.8487 132.795 25.216C133.163 25.564 133.346 25.9893 133.346 26.492C133.346 26.9947 133.163 27.4297 132.795 27.797C132.447 28.145 132.022 28.319 131.519 28.319ZM138.81 28H135.939V14.776H138.81V28ZM137.389 12.949C136.925 12.949 136.529 12.7943 136.2 12.485C135.871 12.1563 135.707 11.7503 135.707 11.267C135.707 10.7837 135.871 10.3873 136.2 10.078C136.529 9.74933 136.925 9.585 137.389 9.585C137.853 9.585 138.249 9.74933 138.578 10.078C138.907 10.3873 139.071 10.7837 139.071 11.267C139.071 11.7503 138.907 12.1563 138.578 12.485C138.249 12.7943 137.853 12.949 137.389 12.949ZM147.97 28.319C146.791 28.319 145.699 28.0097 144.693 27.391C143.688 26.7723 142.886 25.9313 142.286 24.868C141.687 23.8047 141.387 22.6447 141.387 21.388C141.387 20.1313 141.687 18.9713 142.286 17.908C142.886 16.8447 143.688 16.0037 144.693 15.385C145.699 14.7663 146.791 14.457 147.97 14.457C149.15 14.457 150.242 14.7663 151.247 15.385C152.253 16.0037 153.045 16.8447 153.625 17.908C154.225 18.9713 154.524 20.1313 154.524 21.388C154.524 22.6447 154.225 23.8047 153.625 24.868C153.045 25.9313 152.253 26.7723 151.247 27.391C150.242 28.0097 149.15 28.319 147.97 28.319ZM147.97 25.651C148.647 25.651 149.266 25.477 149.826 25.129C150.387 24.7617 150.832 24.259 151.16 23.621C151.489 22.9637 151.653 22.2193 151.653 21.388C151.653 20.576 151.489 19.851 151.16 19.213C150.832 18.5557 150.387 18.053 149.826 17.705C149.266 17.3377 148.647 17.154 147.97 17.154C147.294 17.154 146.665 17.3377 146.085 17.705C145.525 18.053 145.08 18.5557 144.751 19.213C144.423 19.851 144.258 20.576 144.258 21.388C144.258 22.2193 144.423 22.9637 144.751 23.621C145.08 24.259 145.525 24.7617 146.085 25.129C146.665 25.477 147.294 25.651 147.97 25.651Z" fill="#0F141E"/>
<path d="M95.0425 47.4013C94.6025 47.4013 94.2129 47.305 93.8738 47.1125C93.5438 46.92 93.31 46.7321 93.1725 46.5487H93.1175L92.87 47.25H91.8525V38.5875H93.2138V41.64H93.2688C93.3788 41.475 93.5988 41.3008 93.9288 41.1175C94.2588 40.925 94.63 40.8287 95.0425 40.8287C95.5558 40.8287 96.0325 40.9708 96.4725 41.255C96.9217 41.5392 97.2746 41.9333 97.5313 42.4375C97.7971 42.9325 97.93 43.4917 97.93 44.115C97.93 44.7383 97.7971 45.3021 97.5313 45.8062C97.2746 46.3012 96.9217 46.6908 96.4725 46.975C96.0325 47.2592 95.5558 47.4013 95.0425 47.4013ZM94.8913 46.1362C95.1938 46.1362 95.4733 46.0537 95.73 45.8887C95.9867 45.7146 96.1883 45.4717 96.335 45.16C96.4908 44.8483 96.5688 44.5 96.5688 44.115C96.5688 43.73 96.4908 43.3862 96.335 43.0837C96.1883 42.7721 95.9867 42.5337 95.73 42.3687C95.4733 42.1946 95.1938 42.1075 94.8913 42.1075C94.5888 42.1075 94.3092 42.1946 94.0525 42.3687C93.7958 42.5337 93.5896 42.7721 93.4338 43.0837C93.2871 43.3862 93.2138 43.73 93.2138 44.115C93.2138 44.5 93.2871 44.8483 93.4338 45.16C93.5896 45.4717 93.7958 45.7146 94.0525 45.8887C94.3092 46.0537 94.5888 46.1362 94.8913 46.1362ZM103.009 40.98H104.411L101.813 47.5938C101.538 48.3179 101.244 48.8221 100.933 49.1063C100.621 49.3996 100.254 49.5463 99.8325 49.5463C99.6309 49.5463 99.4063 49.505 99.1588 49.4225V48.185C99.2871 48.24 99.4338 48.2675 99.5988 48.2675C99.8371 48.2675 100.034 48.2079 100.19 48.0888C100.346 47.9696 100.474 47.7633 100.575 47.47L100.74 47.0712L98.265 40.98H99.7363L101.414 45.435L103.009 40.98ZM110.674 47.4013C110.115 47.4013 109.597 47.2546 109.12 46.9612C108.644 46.6679 108.263 46.2692 107.979 45.765C107.695 45.2608 107.553 44.7108 107.553 44.115C107.553 43.5192 107.695 42.9692 107.979 42.465C108.263 41.9608 108.644 41.5621 109.12 41.2687C109.597 40.9754 110.115 40.8287 110.674 40.8287C111.169 40.8287 111.618 40.9479 112.022 41.1862C112.434 41.4154 112.773 41.7179 113.039 42.0937C113.305 42.4696 113.479 42.8683 113.562 43.29H112.2C112.118 42.9875 111.944 42.7171 111.678 42.4787C111.412 42.2312 111.078 42.1075 110.674 42.1075C110.353 42.1075 110.055 42.1946 109.78 42.3687C109.515 42.5337 109.304 42.7721 109.148 43.0837C108.992 43.3862 108.914 43.73 108.914 44.115C108.914 44.5092 108.992 44.8621 109.148 45.1737C109.304 45.4762 109.515 45.7146 109.78 45.8887C110.055 46.0537 110.353 46.1362 110.674 46.1362C111.078 46.1362 111.412 46.0125 111.678 45.765C111.944 45.5175 112.118 45.2425 112.2 44.94H113.562C113.479 45.3617 113.305 45.7604 113.039 46.1362C112.773 46.5121 112.434 46.8192 112.022 47.0575C111.618 47.2867 111.169 47.4013 110.674 47.4013ZM117.07 40.8287C117.831 40.8287 118.436 41.0625 118.885 41.53C119.343 41.9975 119.572 42.6117 119.572 43.3725V47.25H118.555L118.307 46.5487H118.252C118.069 46.7687 117.826 46.9658 117.524 47.14C117.221 47.3142 116.85 47.4013 116.41 47.4013C116.007 47.4013 115.644 47.3188 115.324 47.1537C115.012 46.9887 114.764 46.7642 114.581 46.48C114.398 46.1867 114.306 45.8704 114.306 45.5312C114.306 44.9079 114.572 44.4129 115.104 44.0462C115.644 43.6704 116.35 43.4825 117.221 43.4825H118.211V43.2762C118.211 42.9004 118.106 42.6025 117.895 42.3825C117.684 42.1625 117.404 42.0525 117.056 42.0525C116.735 42.0525 116.479 42.135 116.286 42.3C116.103 42.465 115.988 42.6621 115.942 42.8912H114.595C114.632 42.5337 114.751 42.1992 114.952 41.8875C115.154 41.5667 115.434 41.31 115.791 41.1175C116.158 40.925 116.584 40.8287 117.07 40.8287ZM116.685 46.26C117.143 46.26 117.51 46.1225 117.785 45.8475C118.069 45.5725 118.211 45.2425 118.211 44.8575V44.4725H117.221C116.708 44.4725 116.318 44.5596 116.052 44.7337C115.796 44.8987 115.667 45.1279 115.667 45.4212C115.667 45.6687 115.754 45.8704 115.929 46.0262C116.112 46.1821 116.364 46.26 116.685 46.26ZM121.07 47.25V40.98H122.087L122.335 41.6812H122.403C122.541 41.4887 122.743 41.3008 123.008 41.1175C123.283 40.925 123.595 40.8287 123.943 40.8287C124.163 40.8287 124.342 40.8517 124.48 40.8975V42.245C124.324 42.2083 124.136 42.19 123.916 42.19C123.467 42.19 123.105 42.3367 122.83 42.63C122.564 42.9142 122.431 43.3037 122.431 43.7987V47.25H121.07ZM130.872 43.9775C130.872 44.2708 130.849 44.4954 130.803 44.6512H126.169C126.261 45.1279 126.458 45.5037 126.76 45.7787C127.072 46.0446 127.453 46.1775 127.902 46.1775C128.223 46.1775 128.493 46.1133 128.713 45.985C128.942 45.8567 129.121 45.7008 129.249 45.5175H130.665C130.464 46.0217 130.115 46.4617 129.62 46.8375C129.125 47.2133 128.557 47.4013 127.915 47.4013C127.347 47.4013 126.825 47.2592 126.348 46.975C125.871 46.6817 125.491 46.2875 125.207 45.7925C124.932 45.2883 124.794 44.7292 124.794 44.115C124.794 43.5192 124.936 42.9692 125.22 42.465C125.505 41.9608 125.88 41.5621 126.348 41.2687C126.825 40.9754 127.338 40.8287 127.888 40.8287C128.438 40.8287 128.942 40.9708 129.4 41.255C129.859 41.53 130.216 41.9058 130.473 42.3825C130.739 42.8592 130.872 43.3908 130.872 43.9775ZM127.888 42.0525C127.466 42.0525 127.095 42.1946 126.774 42.4787C126.453 42.7629 126.247 43.1433 126.155 43.62H129.565C129.483 43.1525 129.286 42.7767 128.974 42.4925C128.672 42.1992 128.31 42.0525 127.888 42.0525ZM137.8 43.9775C137.8 44.2708 137.777 44.4954 137.732 44.6512H133.098C133.19 45.1279 133.387 45.5037 133.689 45.7787C134.001 46.0446 134.381 46.1775 134.83 46.1775C135.151 46.1775 135.422 46.1133 135.642 45.985C135.871 45.8567 136.05 45.7008 136.178 45.5175H137.594C137.392 46.0217 137.044 46.4617 136.549 46.8375C136.054 47.2133 135.486 47.4013 134.844 47.4013C134.276 47.4013 133.753 47.2592 133.277 46.975C132.8 46.6817 132.42 46.2875 132.135 45.7925C131.86 45.2883 131.723 44.7292 131.723 44.115C131.723 43.5192 131.865 42.9692 132.149 42.465C132.433 41.9608 132.809 41.5621 133.277 41.2687C133.753 40.9754 134.267 40.8287 134.817 40.8287C135.367 40.8287 135.871 40.9708 136.329 41.255C136.787 41.53 137.145 41.9058 137.402 42.3825C137.667 42.8592 137.8 43.3908 137.8 43.9775ZM134.817 42.0525C134.395 42.0525 134.024 42.1946 133.703 42.4787C133.382 42.7629 133.176 43.1433 133.084 43.62H136.494C136.412 43.1525 136.215 42.7767 135.903 42.4925C135.6 42.1992 135.238 42.0525 134.817 42.0525ZM139.009 47.25V40.98H140.027L140.274 41.6812H140.343C140.48 41.4887 140.682 41.3008 140.948 41.1175C141.223 40.925 141.535 40.8287 141.883 40.8287C142.103 40.8287 142.282 40.8517 142.419 40.8975V42.245C142.263 42.2083 142.075 42.19 141.855 42.19C141.406 42.19 141.044 42.3367 140.769 42.63C140.503 42.9142 140.37 43.3037 140.37 43.7987V47.25H139.009ZM143.251 47.4013C143.004 47.4013 142.798 47.3188 142.633 47.1537C142.468 46.9796 142.385 46.7733 142.385 46.535C142.385 46.2967 142.468 46.095 142.633 45.93C142.798 45.7558 143.004 45.6687 143.251 45.6687C143.49 45.6687 143.691 45.7558 143.856 45.93C144.031 46.095 144.118 46.2967 144.118 46.535C144.118 46.7733 144.031 46.9796 143.856 47.1537C143.691 47.3188 143.49 47.4013 143.251 47.4013ZM146.708 47.25H145.347V40.98H146.708V47.25ZM146.034 40.1137C145.814 40.1137 145.627 40.0404 145.471 39.8937C145.315 39.7379 145.237 39.5454 145.237 39.3162C145.237 39.0871 145.315 38.8992 145.471 38.7525C145.627 38.5967 145.814 38.5187 146.034 38.5187C146.254 38.5187 146.442 38.5967 146.598 38.7525C146.754 38.8992 146.832 39.0871 146.832 39.3162C146.832 39.5454 146.754 39.7379 146.598 39.8937C146.442 40.0404 146.254 40.1137 146.034 40.1137ZM151.051 47.4013C150.492 47.4013 149.974 47.2546 149.498 46.9612C149.021 46.6679 148.641 46.2692 148.356 45.765C148.072 45.2608 147.93 44.7108 147.93 44.115C147.93 43.5192 148.072 42.9692 148.356 42.465C148.641 41.9608 149.021 41.5621 149.498 41.2687C149.974 40.9754 150.492 40.8287 151.051 40.8287C151.611 40.8287 152.128 40.9754 152.605 41.2687C153.082 41.5621 153.458 41.9608 153.733 42.465C154.017 42.9692 154.159 43.5192 154.159 44.115C154.159 44.7108 154.017 45.2608 153.733 45.765C153.458 46.2692 153.082 46.6679 152.605 46.9612C152.128 47.2546 151.611 47.4013 151.051 47.4013ZM151.051 46.1362C151.372 46.1362 151.666 46.0537 151.931 45.8887C152.197 45.7146 152.408 45.4762 152.564 45.1737C152.72 44.8621 152.798 44.5092 152.798 44.115C152.798 43.73 152.72 43.3862 152.564 43.0837C152.408 42.7721 152.197 42.5337 151.931 42.3687C151.666 42.1946 151.372 42.1075 151.051 42.1075C150.731 42.1075 150.433 42.1946 150.158 42.3687C149.892 42.5337 149.681 42.7721 149.525 43.0837C149.369 43.3862 149.291 43.73 149.291 44.115C149.291 44.5092 149.369 44.8621 149.525 45.1737C149.681 45.4762 149.892 45.7146 150.158 45.8887C150.433 46.0537 150.731 46.1362 151.051 46.1362Z" fill="#828BA2"/>
</svg>
